<svg id="Capa_1" enable-background="new 0 0 512 512" height="512" viewBox="0 0 512 512" width="512" xmlns="http://www.w3.org/2000/svg" xmlns:xlink="http://www.w3.org/1999/xlink"><linearGradient id="SVGID_1_" gradientUnits="userSpaceOnUse" x1="74.981" x2="437.02" y1="437.019" y2="74.98"><stop offset="0" stop-color="#0056e0"/><stop offset="1" stop-color="#fc54ff"/></linearGradient><radialGradient id="SVGID_2_" cx="256.001" cy="256" gradientUnits="userSpaceOnUse" r="258.6"><stop offset=".0053" stop-color="#8d00db" stop-opacity=".66"/><stop offset="1" stop-color="#fc54ff" stop-opacity="0"/></radialGradient><linearGradient id="lg1"><stop offset="0" stop-color="#fc54ff"/><stop offset=".2201" stop-color="#fd75ff"/><stop offset=".7016" stop-color="#fec8ff"/><stop offset="1" stop-color="#fff"/></linearGradient><linearGradient id="SVGID_3_" gradientUnits="userSpaceOnUse" x1="13.858" x2="488.29" xlink:href="#lg1" y1="370.358" y2="-104.074"/><linearGradient id="SVGID_4_" gradientUnits="userSpaceOnUse" x1="12.73" x2="701.497" xlink:href="#lg1" y1="657.232" y2="-31.535"/><linearGradient id="SVGID_5_" gradientUnits="userSpaceOnUse" x1="-45.012" x2="700.98" xlink:href="#lg1" y1="571.25" y2="-174.743"/><radialGradient id="SVGID_6_" cx="256" cy="271.75" gradientUnits="userSpaceOnUse" r="213.984"><stop offset="0" stop-color="#8d00db" stop-opacity=".66"/><stop offset=".2088" stop-color="#b31de7" stop-opacity=".522"/><stop offset=".4232" stop-color="#d335f2" stop-opacity=".381"/><stop offset=".6311" stop-color="#ea46f9" stop-opacity=".244"/><stop offset=".8274" stop-color="#f750fd" stop-opacity=".114"/><stop offset="1" stop-color="#fc54ff" stop-opacity="0"/></radialGradient><linearGradient id="SVGID_7_" gradientUnits="userSpaceOnUse" x1="122.167" x2="698.073" xlink:href="#lg1" y1="322.46" y2="-253.447"/><linearGradient id="SVGID_8_" gradientUnits="userSpaceOnUse" x1="-24.276" x2="357.601" y1="551.384" y2="169.508"><stop offset="0" stop-color="#fc54ff"/><stop offset=".1022" stop-color="#fd77ff"/><stop offset=".2431" stop-color="#fda0ff"/><stop offset=".3875" stop-color="#fec3ff"/><stop offset=".5338" stop-color="#feddff"/><stop offset=".6827" stop-color="#fff0ff"/><stop offset=".8359" stop-color="#fffbff"/><stop offset="1" stop-color="#fff"/></linearGradient><linearGradient id="lg2"><stop offset="0" stop-color="#230be0"/><stop offset="1" stop-color="#fc54ff"/></linearGradient><linearGradient id="SVGID_9_" gradientUnits="userSpaceOnUse" x1="109.803" x2="261.231" xlink:href="#lg2" y1="354.124" y2="202.696"/><linearGradient id="SVGID_10_" gradientUnits="userSpaceOnUse" x1="94.554" x2="246.988" xlink:href="#lg2" y1="429.966" y2="277.531"/><linearGradient id="SVGID_11_" gradientUnits="userSpaceOnUse" x1="128.512" x2="302.861" xlink:href="#lg2" y1="454.164" y2="279.816"/><linearGradient id="SVGID_12_" gradientUnits="userSpaceOnUse" x1="150.008" x2="333.512" xlink:href="#lg2" y1="445.951" y2="262.448"/><linearGradient id="SVGID_13_" gradientUnits="userSpaceOnUse" x1="199.127" x2="336.542" xlink:href="#lg2" y1="336.435" y2="199.021"/><linearGradient id="SVGID_14_" gradientUnits="userSpaceOnUse" x1="111.456" x2="288.13" xlink:href="#lg2" y1="361.093" y2="184.419"/><linearGradient id="SVGID_15_" gradientUnits="userSpaceOnUse" x1="195.3" x2="351.27" xlink:href="#lg2" y1="332.343" y2="176.373"/><radialGradient id="SVGID_16_" cx="256" cy="271.75" gradientUnits="userSpaceOnUse" r="81.07"><stop offset="0" stop-color="#b31de7" stop-opacity="0"/><stop offset=".1303" stop-color="#ac1ce7" stop-opacity=".13"/><stop offset=".3164" stop-color="#991ae6" stop-opacity=".316"/><stop offset=".5362" stop-color="#7b16e4" stop-opacity=".536"/><stop offset=".7796" stop-color="#5011e2" stop-opacity=".78"/><stop offset="1" stop-color="#230be0"/></radialGradient><g><circle cx="256" cy="256" fill="url(#SVGID_1_)" r="256"/><circle cx="256" cy="256" fill="url(#SVGID_2_)" r="256"/><path d="m102.596 149.308c-16.81.371-30.968 14.15-31.383 30.692-1.469 60.667-.746 121.333 2.167 182 .821 16.541 15.085 30.549 31.619 31.148 10 .348 20 .661 30 .94-3.232-81.782-3.874-163.564-1.926-245.346-10.159.168-20.318.357-30.477.566z" fill="url(#SVGID_3_)"/><path d="m409.404 149.308c-10.159-.21-20.318-.399-30.478-.567 1.948 81.782 1.306 163.564-1.926 245.346 10-.279 20-.592 30-.94 16.534-.599 30.798-14.607 31.619-31.148 2.914-60.667 3.636-121.333 2.167-182-.414-16.541-14.572-30.32-31.382-30.691z" fill="url(#SVGID_4_)"/><path d="m408.351 362.92c2.431-61.128 3.033-122.255 1.808-183.383-.348-16.672-14.422-30.498-31.233-30.795-81.951-1.356-163.902-1.356-245.853 0-16.811.297-30.884 14.123-31.233 30.795-1.225 61.128-.623 122.255 1.808 183.383.69 16.671 14.816 30.688 31.351 31.168 80.667 2.249 161.333 2.249 242 0 16.536-.48 30.662-14.497 31.352-31.168z" fill="url(#SVGID_5_)"/><path d="m438.619 362c2.914-60.667 3.636-121.333 2.167-182-.414-16.541-14.572-30.321-31.383-30.692-102.269-2.111-204.539-2.111-306.808 0-16.81.371-30.968 14.15-31.383 30.692-1.469 60.667-.746 121.333 2.167 182 .821 16.541 15.085 30.549 31.619 31.148 100.667 3.503 201.333 3.503 302 0 16.536-.599 30.8-14.607 31.621-31.148z" fill="url(#SVGID_6_)"/><path d="m191.966 105.617c-16.849 39.78-33.926 79.457-50.517 118.826 76.368-.207 152.735-.207 229.103 0-16.592-39.369-33.668-79.046-50.517-118.826-4.888-11.514-15.96-19.143-28.083-19.243-23.968-.199-47.935-.199-71.903 0-12.124.101-23.195 7.729-28.083 19.243z" fill="url(#SVGID_7_)"/><path d="m256 147.725c-67.533.161-124.315 56.252-123.906 123.69.854 67.426 57.636 124.211 123.906 124.36 66.269-.149 123.052-56.934 123.906-124.36.409-67.438-56.373-123.53-123.906-123.69z" fill="url(#SVGID_8_)"/><path d="m256 275.818c0-17.933 0-35.866 0-53.799-16.703-9.647-33.387-19.283-50.01-28.856-25.962 16.651-43.382 45.566-43.175 78.397.008 1.355.052 2.702.119 4.043 31.022.143 62.044.215 93.066.215z" fill="url(#SVGID_9_)"/><path d="m212.933 246.877c-16.699 9.626-33.38 19.218-50 28.727 1.707 34.01 22.12 63.569 50.563 78.749 14.168.099 28.335.149 42.503.149-14.167-35.872-28.692-71.795-43.066-107.625z" fill="url(#SVGID_10_)"/><path d="m256 271.75c-14.342 8.289-28.662 16.563-42.932 24.792.094 19.27.237 38.54.429 57.81 12.785 6.801 27.212 10.673 42.503 10.672 18.157.002 35.107-5.457 49.517-14.798.293-26.177.48-52.354.563-78.532-16.694.038-33.387.056-50.08.056z" fill="url(#SVGID_11_)"/><path d="m256 321.481c16.599 9.647 33.119 19.246 49.517 28.746 25.791-16.766 43.472-45.839 43.668-78.667.008-1.355-.02-2.702-.071-4.042-27.868.098-55.735.153-83.603.162-3.18 17.933-6.359 35.868-9.511 53.801z" fill="url(#SVGID_12_)"/><path d="m298.933 296.542c16.699-9.688 33.44-19.38 50.181-29.024-1.286-34.002-21.481-63.38-50.165-78.452-11.153-.036-22.305-.057-33.458-.065 11.189 35.878 22.468 71.754 33.442 107.541z" fill="url(#SVGID_13_)"/><path d="m298.949 189.066c-12.881-6.752-27.476-10.592-42.949-10.591-18.375-.001-35.518 5.411-50.011 14.689 16.623 9.573 33.307 19.209 50.01 28.856v24.865c14.356 0 28.711-.003 43.067-.008.01-19.27-.029-38.54-.117-57.811z" fill="url(#SVGID_14_)"/><path d="m299.067 246.877c-14.351-8.272-28.716-16.569-43.067-24.858.004.002-43.071 24.87-43.067 24.858.009 16.555.053 33.11.134 49.665 14.351 8.326 28.671 16.65 42.932 24.939-.044.022 42.897-24.927 42.933-24.939.081-16.555.126-33.11.135-49.665z" fill="url(#SVGID_15_)"/><path d="m299.067 246.877c-14.351-8.272-28.716-16.569-43.067-24.858.004.002-43.071 24.87-43.067 24.858.009 16.555.053 33.11.134 49.665 14.351 8.326 28.671 16.65 42.932 24.939-.044.022 42.897-24.927 42.933-24.939.081-16.555.126-33.11.135-49.665z" fill="url(#SVGID_16_)"/></g></svg>